#!OML:ASF E:\acrobat2\Project_11_07_03\Capture day 1\Session 1\Acrobat.ASF
:FULLY-SPECIFIED
:DEGREES
184
root 10.0066 21.5469 -19.0659 3.51835 3.03609 -0.738841
lowerback -8.3948 -0.809133 -0.602209
upperback -1.2137 -1.00611 -0.37931
thorax 3.4522 -0.504565 -0.16655
lowerneck 4.0394 -11.7822 -7.30901
upperneck 3.3879 -16.2383 8.26113
head 1.80376 -8.19064 3.72545
rclavicle -4.39811e-015 -1.98785e-015
rhumerus -40.2291 -6.92168 -81.4862
rradius 23.9345
rwrist 6.87842
rhand -3.68142 -26.7932
rfingers 7.12502
rthumb 22.0599 -55.5549
lclavicle -4.39811e-015 -1.98785e-015
lhumerus -33.4682 -1.44694 85.5476
lradius 22.4749
lwrist 7.24852
lhand -6.71652 -13.3308
lfingers 7.12502
lthumb 19.1434 15.747
rfemur 5.8195 7.48533 19.8756
rtibia -2.08264
rfoot -17.561 -13.7543
rtoes 19.3147
lfemur 2.66435 -2.60115 -14.3576
ltibia 1.27917
lfoot -6.86276 -4.56948
ltoes 4.9291
185
root 10.0076 21.5464 -19.0704 3.48032 3.04526 -0.689276
lowerback -8.40537 -0.791377 -0.618133
upperback -1.19167 -0.979165 -0.423081
thorax 3.48036 -0.491197 -0.200211
lowerneck 4.03171 -11.7652 -7.3184
upperneck 3.40418 -16.2193 8.32657
head 1.81648 -8.18094 3.74861
rclavicle -3.90115e-015 -7.95139e-015
rhumerus -40.2498 -7.03206 -81.4735
rradius 23.9111
rwrist 7.00015
rhand -3.57763 -26.8669
rfingers 7.12502
rthumb 22.1595 -55.6168
lclavicle -3.90115e-015 -7.95139e-015
lhumerus -33.4759 -1.46261 85.5288
lradius 22.5116
lwrist 7.18213
lhand -6.65687 -13.3884
lfingers 7.12502
lthumb 19.2008 15.6838
rfemur 5.8544 7.43252 19.8071
rtibia -2.05203
rfoot -17.6311 -13.6765
rtoes 19.3544
lfemur 2.70286 -2.55073 -14.4173
ltibia 1.25773
lfoot -6.84421 -4.6517
ltoes 5.2
186
root 10.0091 21.5454 -19.0758 3.46424 3.04223 -0.63556
lowerback -8.42155 -0.772456 -0.628549
upperback -1.18146 -0.951138 -0.467382
thorax 3.49932 -0.477199 -0.237353
lowerneck 4.04635 -11.7528 -7.33934
upperneck 3.39837 -16.2067 8.39014
head 1.81939 -8.17522 3.77515
rclavicle -5.09386e-015 -1.55052e-014
rhumerus -40.2676 -7.17022 -81.4383
rradius 23.8568
rwrist 7.16561
rhand -3.53093 -26.8152
rfingers 7.12502
rthumb 22.2043 -55.5599
lclavicle -5.09386e-015 -1.55052e-014
lhumerus -33.4966 -1.44606 85.5008
lradius 22.5521
lwrist 7.08738
lhand -6.61035 -13.4631
lfingers 7.12502
lthumb 19.2455 15.6046
rfemur 5.85236 7.36683 19.7218
rtibia -1.9945
rfoot -17.7016 -13.5638
rtoes 19.4388
lfemur 2.71338 -2.54257 -14.4927
ltibia 1.24025
lfoot -6.87029 -4.68813
ltoes 5.3572
187
root 10.011 21.544 -19.0824 3.47108 3.03318 -0.590372
lowerback -8.43577 -0.757533 -0.626815
upperback -1.18698 -0.929988 -0.502778
thorax 3.50089 -0.466477 -0.272698
lowerneck 4.07881 -11.7391 -7.37426
upperneck 3.38425 -16.1926 8.43751
head 1.81591 -8.1694 3.80029
rclavicle -2.12451e-015 -1.39149e-014
rhumerus -40.2885 -7.29302 -81.3937
rradius 23.7948
rwrist 7.32793
rhand -3.53544 -26.6658
rfingers 7.12502
rthumb 22.2 -55.411
lclavicle -2.12451e-015 -1.39149e-014
lhumerus -33.5288 -1.39325 85.4715
lradius 22.582
lwrist 6.98337
lhand -6.59139 -13.5381
lfingers 7.12502
lthumb 19.2638 15.5278
rfemur 5.80961 7.28711 19.635
rtibia -1.92546
rfoot -17.7579 -13.4247
rtoes 19.5783
lfemur 2.69226 -2.56041 -14.5652
ltibia 1.22532
lfoot -6.92435 -4.68866
ltoes 5.38398
188
root 10.0131 21.5422 -19.0902 3.49377 3.0205 -0.563625
lowerback -8.43727 -0.750046 -0.612083
upperback -1.20642 -0.920771 -0.521817
thorax 3.48102 -0.461584 -0.299457
lowerneck 4.11389 -11.7229 -7.42071
upperneck 3.37384 -16.175 8.46216
head 1.81163 -8.16205 3.82002
rclavicle -8.43592e-015 -1.59028e-015
rhumerus -40.3108 -7.36236 -81.3552
rradius 23.7481
rwrist 7.44462
rhand -3.56013 -26.4774
rfingers 7.12502
rthumb 22.1763 -55.2254
lclavicle -8.43592e-015 -1.59028e-015
lhumerus -33.5677 -1.30552 85.4467
lradius 22.5992
lwrist 6.89659
lhand -6.60657 -13.5898
lfingers 7.12502
lthumb 19.2492 15.4776
rfemur 5.73734 7.21524 19.566
rtibia -1.86445
rfoot -17.8038 -13.2915
rtoes 19.7268
lfemur 2.64706 -2.58505 -14.6168
ltibia 1.2108
lfoot -6.98694 -4.66801
ltoes 5.32125
189
root 10.0152 21.54 -19.0989 3.52529 3.0099 -0.55495
lowerback -8.42694 -0.7502 -0.591579
upperback -1.23499 -0.923069 -0.523901
thorax 3.4453 -0.462422 -0.31296
lowerneck 4.13812 -11.7017 -7.47059
upperneck 3.37653 -16.1496 8.45997
head 1.81047 -8.1506 3.83051
rclavicle 1.40392e-015 -2.38542e-015
rhumerus -40.3276 -7.37972 -81.324
rradius 23.718
rwrist 7.50888
rhand -3.60947 -26.2643
rfingers 7.12502
rthumb 22.1289 -55.0179
lclavicle 1.40392e-015 -2.38542e-015
lhumerus -33.6111 -1.21373 85.4379
lradius 22.6102
lwrist 6.86108
lhand -6.64519 -13.5934
lfingers 7.12502
lthumb 19.212 15.4776
rfemur 5.65021 7.16882 19.5218
rtibia -1.82413
rfoot -17.8559 -13.1834
rtoes 19.921
lfemur 2.58455 -2.61438 -14.6456
ltibia 1.19734
lfoot -7.05015 -4.63321
ltoes 5.20826
